<?xml version="1.0" encoding="UTF-8"?>
<svg
  width="32"
  height="32"
  version="1.1"
  viewBox="0 0 32 32"
  xmlns="http://www.w3.org/2000/svg"
>
  <defs>
    <linearGradient id="linearGradient1346" gradientTransform="rotate(90)">
      <stop stop-color="#c10007" offset="0" />
      <stop stop-color="#731415" offset=".25" />
      <stop stop-color="#460809" offset=".5" />
      <stop stop-color="#731415" offset=".75" />
      <stop stop-color="#e7000b" offset="1" />
    </linearGradient>
    <radialGradient id="radialGradient5169" cx="16" cy="16" r="14">
      <stop stop-color="#e7000b" offset="0" />
      <stop stop-color="#731415" offset="1" />
    </radialGradient>
  </defs>
  <rect
    x="0"
    y="0"
    width="32"
    height="32"
    rx="8"
    ry="8"
    fill="url(#linearGradient1346)"
    style="paint-order: markers fill stroke"
  />
  <rect
    x="0"
    y="0"
    width="32"
    height="32"
    rx="8"
    ry="8"
    fill="url(#radialGradient5169)"
    opacity=".35"
    style="paint-order: markers fill stroke"
  />
  <path
    d="m3.55 24.22c-1.2155-1e-3 -1.5422-0.0121-1.5779-0.0529-0.0278-0.0317-0.03177-0.0724-0.01038-0.10612 0.01905-0.0301 0.03492-0.0992 0.03524-0.15354 4.04e-4 -0.067 2.007-3.003 6.2173-9.0973l6.2167-8.9985 3.0523-0.0204 6.2846 9.0962c4.316 6.2468 6.2846 9.1273 6.2846 9.1956v0.0994h-19.486v-0.0904c0-0.0504 0.34562-0.63614 0.77915-1.3206l0.77915-1.2301 12.842-0.0392-4.4903-6.5036c-2.4697-3.577-4.4991-6.504-4.5099-6.5044-0.01076-3.6e-4 -2.4639 3.5381-5.4515 7.8633l-5.4319 7.8641z"
    fill="#fff"
  />
</svg>
